<svg width="1440" height="900" viewBox="0 0 1440 900" fill="none" xmlns="http://www.w3.org/2000/svg">
  <rect width="1440" height="900" fill="#070A10"/>
  <rect x="48" y="48" width="1344" height="804" rx="28" fill="#0B1018" stroke="rgba(255,255,255,0.12)"/>
  <text x="88" y="118" fill="#79FFE1" font-family="Inter, Arial" font-size="18" font-weight="700" letter-spacing="4">GITHUB REPOSITORY</text>
  <text x="88" y="190" fill="#F8FAFC" font-family="Inter, Arial" font-size="72" font-weight="800">Veritas-RAG</text>
  <text x="88" y="244" fill="#94A3B8" font-family="Inter, Arial" font-size="28">Retrieval augmented generation pipeline</text>
  <rect x="88" y="316" width="280" height="82" rx="16" fill="rgba(121,255,225,0.08)" stroke="rgba(121,255,225,0.28)"/>
  <text x="116" y="365" fill="#D7E2EA" font-family="Inter, Arial" font-size="24">Python</text>
  <rect x="392" y="316" width="280" height="82" rx="16" fill="rgba(106,167,255,0.08)" stroke="rgba(106,167,255,0.28)"/>
  <text x="420" y="365" fill="#D7E2EA" font-family="Inter, Arial" font-size="24">RAG</text>
  <rect x="696" y="316" width="280" height="82" rx="16" fill="rgba(255,122,144,0.08)" stroke="rgba(255,122,144,0.28)"/>
  <text x="724" y="365" fill="#D7E2EA" font-family="Inter, Arial" font-size="24">Grounded answers</text>
  <g stroke="#79FFE1" stroke-opacity="0.45" stroke-width="3" stroke-dasharray="10 12">
    <path d="M180 600 C310 520 410 520 540 600"/>
    <path d="M540 600 C670 680 770 680 900 600"/>
    <path d="M900 600 C990 540 1080 540 1170 600"/>
  </g>
  <g>
    <rect x="120" y="560" width="160" height="80" rx="18" fill="rgba(121,255,225,0.12)" stroke="rgba(121,255,225,0.45)"/>
    <text x="154" y="610" fill="#79FFE1" font-family="Inter, Arial" font-size="22" font-weight="700">Query</text>
    <rect x="460" y="560" width="160" height="80" rx="18" fill="rgba(121,255,225,0.12)" stroke="rgba(121,255,225,0.45)"/>
    <text x="494" y="610" fill="#79FFE1" font-family="Inter, Arial" font-size="22" font-weight="700">Retrieve</text>
    <rect x="820" y="560" width="160" height="80" rx="18" fill="rgba(121,255,225,0.12)" stroke="rgba(121,255,225,0.45)"/>
    <text x="856" y="610" fill="#79FFE1" font-family="Inter, Arial" font-size="22" font-weight="700">Verify</text>
    <rect x="1100" y="560" width="160" height="80" rx="18" fill="rgba(121,255,225,0.12)" stroke="rgba(121,255,225,0.45)"/>
    <text x="1138" y="610" fill="#79FFE1" font-family="Inter, Arial" font-size="22" font-weight="700">Answer</text>
  </g>
</svg>
